<svg width="10" height="15" viewBox="0 0 10 15" fill="none" xmlns="http://www.w3.org/2000/svg">
<path d="M1.14872 7.63799L7.45464 13.9438C7.60049 14.0898 7.79518 14.1702 8.00278 14.1702C8.21038 14.1702 8.40507 14.0898 8.55092 13.9438L9.01531 13.4795C9.31749 13.177 9.31749 12.6853 9.01531 12.3832L3.72008 7.088L9.02118 1.78689C9.16703 1.64093 9.24756 1.44635 9.24756 1.23887C9.24756 1.03116 9.16703 0.836576 9.02118 0.690497L8.55679 0.22634C8.41083 0.0803777 8.21625 -3.42421e-05 8.00865 -3.4224e-05C7.80106 -3.42058e-05 7.60636 0.0803777 7.46051 0.22634L1.14872 6.53791C1.00253 6.68433 0.922234 6.87983 0.922695 7.08766C0.922234 7.29629 1.00253 7.49168 1.14872 7.63799Z" fill="black"/>
</svg>
