<svg width="10" height="15" viewBox="0 0 10 15" fill="none" xmlns="http://www.w3.org/2000/svg">
<path d="M8.85127 6.53218L2.54536 0.226376C2.39951 0.0804124 2.20482 0 1.99722 0C1.78962 0 1.59493 0.0804124 1.44908 0.226376L0.984693 0.690648C0.682513 0.993173 0.682513 1.48486 0.984693 1.78693L6.27992 7.08216L0.978817 12.3833C0.832969 12.5292 0.752441 12.7238 0.752441 12.9313C0.752441 13.139 0.832969 13.3336 0.978817 13.4797L1.4432 13.9438C1.58917 14.0898 1.78375 14.1702 1.99134 14.1702C2.19894 14.1702 2.39364 14.0898 2.53948 13.9438L8.85127 7.63226C8.99747 7.48584 9.07777 7.29034 9.0773 7.08251C9.07777 6.87387 8.99747 6.67849 8.85127 6.53218Z" fill="black"/>
</svg>
